<svg width="53" height="60" viewBox="0 0 53 60" fill="none" xmlns="http://www.w3.org/2000/svg">
<path fill-rule="evenodd" clip-rule="evenodd" d="M4.35628 12.2809L1.87793 13.4541V46.5459L4.35628 47.7191L14.3862 30.8577L4.35628 12.2809Z" fill="#9D5025"/>
<path fill-rule="evenodd" clip-rule="evenodd" d="M10.1324 46.4365L4.3562 47.7191V12.2809L10.1324 13.5297V46.4365Z" fill="#F58536"/>
<path fill-rule="evenodd" clip-rule="evenodd" d="M7.08887 10.9842L10.1326 9.5506L24.5912 31.4887L10.1326 50.4494L7.08887 49.0158V10.9842Z" fill="#9D5025"/>
<path fill-rule="evenodd" clip-rule="evenodd" d="M17.3361 48.5217L10.1326 50.4494V9.5506L17.3361 11.4847V48.5217Z" fill="#F58536"/>
<path fill-rule="evenodd" clip-rule="evenodd" d="M13.5242 7.93836L17.3359 6.13412L38.6649 33.8894L17.3359 53.8652L13.5242 52.0609V7.93836Z" fill="#9D5025"/>
<path fill-rule="evenodd" clip-rule="evenodd" d="M26.5759 50.6689L17.3359 53.8659V6.13412L26.5759 9.33742V50.6689Z" fill="#F58536"/>
<path fill-rule="evenodd" clip-rule="evenodd" d="M21.6482 4.09694L26.5767 1.76471L49.652 31.5981L26.5767 58.2353L21.6482 55.9031V4.09694Z" fill="#9D5025"/>
<path fill-rule="evenodd" clip-rule="evenodd" d="M51.2896 46.5395L26.5767 58.2353V1.76471L51.2896 13.4612V46.5395Z" fill="#F58536"/>
</svg>
