<svg width="61" height="60" viewBox="0 0 61 60" fill="none" xmlns="http://www.w3.org/2000/svg">
<path d="M53.5835 27.625L33.2085 7.25C32.5835 6.625 31.7085 6.25 30.8335 6.25C29.9585 6.25 29.0835 6.625 28.4585 7.25L24.0835 11.625L29.2085 16.75C29.7085 16.5 30.2085 16.375 30.8335 16.375C32.9585 16.375 34.5835 18 34.5835 20.125C34.5835 20.75 34.4585 21.25 34.2085 21.75L39.2085 26.75C39.7085 26.5 40.2085 26.375 40.8335 26.375C42.9585 26.375 44.5835 28 44.5835 30.125C44.5835 32.25 42.9585 33.875 40.8335 33.875C38.7085 33.875 37.0835 32.25 37.0835 30.125C37.0835 29.5 37.2085 29 37.4585 28.5L32.4585 23.5C32.3335 23.5 32.2085 23.625 32.0835 23.625V36.625C33.5835 37.125 34.5835 38.5 34.5835 40.125C34.5835 42.25 32.9585 43.875 30.8335 43.875C28.7085 43.875 27.0835 42.25 27.0835 40.125C27.0835 38.5 28.0835 37.125 29.5835 36.625V23.5C28.0835 23 27.0835 21.625 27.0835 20C27.0835 19.375 27.2085 18.875 27.4585 18.375L22.3335 13.25L8.0835 27.625C7.4585 28.25 7.0835 29.125 7.0835 30C7.0835 30.875 7.4585 31.75 8.0835 32.375L28.4585 52.75C29.0835 53.375 29.9585 53.75 30.8335 53.75C31.7085 53.75 32.5835 53.375 33.2085 52.75L53.5835 32.375C54.2085 31.75 54.5835 30.875 54.5835 30C54.5835 29.125 54.2085 28.25 53.5835 27.625Z" fill="#F4511E"/>
</svg>
