<svg width="60" height="60" viewBox="0 0 60 60" fill="none" xmlns="http://www.w3.org/2000/svg">
<path d="M30 42.5C13.875 42.5 1.25 37 1.25 30C1.25 23 13.875 17.5 30 17.5C46.125 17.5 58.75 23 58.75 30C58.75 37 46.125 42.5 30 42.5ZM30 20C14.25 20 3.75 25.125 3.75 30C3.75 34.875 14.25 40 30 40C45.75 40 56.25 34.875 56.25 30C56.25 25.125 45.75 20 30 20Z" fill="#80DEEA"/>
<path d="M18.875 55.75C17.625 55.75 16.625 55.5 15.625 54.875C9.49998 51.375 11.125 37.75 19.125 23.75C22.875 17.25 27.5 11.75 32 8.25C36.875 4.5 41.25 3.375 44.25 5.125C47.375 6.875 48.5 11.25 47.75 17.375C47 23.125 44.5 29.875 40.75 36.375C37 42.875 32.375 48.375 27.875 51.875C24.625 54.375 21.5 55.75 18.875 55.75ZM41.125 6.75C39.125 6.75 36.5 7.875 33.625 10.125C29.375 13.5 25 18.75 21.375 25C13.5 38.625 12.75 50.375 16.875 52.75C19 54 22.5 52.875 26.375 49.875C30.625 46.5 35 41.25 38.625 35C42.25 28.75 44.625 22.375 45.375 17C46 12 45.25 8.5 43.125 7.25C42.5 7 41.875 6.75 41.125 6.75Z" fill="#80DEEA"/>
<path d="M41.2499 55.75C34.9999 55.75 25.9999 48.125 19.2499 36.25C11.1249 22.25 9.49995 8.625 15.6249 5.125C21.7499 1.625 32.7499 9.75 40.8749 23.75C44.6249 30.25 47.1249 37 47.8749 42.75C48.7499 48.875 47.4999 53.125 44.3749 55C43.3749 55.5 42.3749 55.75 41.2499 55.75ZM16.8749 7.25C12.7499 9.625 13.4999 21.375 21.3749 35C29.2499 48.625 38.9999 55.125 43.1249 52.75C45.2499 51.5 45.9999 48 45.3749 43C44.6249 37.625 42.2499 31.25 38.6249 25C30.7499 11.375 20.9999 4.875 16.8749 7.25Z" fill="#80DEEA"/>
<path d="M30 35C32.7614 35 35 32.7614 35 30C35 27.2386 32.7614 25 30 25C27.2386 25 25 27.2386 25 30C25 32.7614 27.2386 35 30 35Z" fill="#80DEEA"/>
</svg>
