<svg width="61" height="60" viewBox="0 0 61 60" fill="none" xmlns="http://www.w3.org/2000/svg">
<path d="M54.5835 43.89V16.67L30.8335 3.05875L7.0835 16.67V43.89L30.8335 57.5L54.5835 43.89Z" fill="#43A047"/>
<path d="M41.4585 16.25C39.7322 16.25 38.3335 17.6487 38.3335 19.375V33.47L24.5635 18.0662L24.3997 17.8762C22.8447 16.1725 21.0672 16.25 20.2085 16.25C18.4822 16.25 17.0835 17.6487 17.0835 19.375V40.625C17.0835 42.3512 18.4822 43.75 20.2085 43.75C21.9347 43.75 23.3335 42.3512 23.3335 40.625V26.4262L37.431 42.21L37.5685 42.3875C39.1085 43.9162 41.2022 43.75 41.4585 43.75C43.1847 43.75 44.5835 42.3512 44.5835 40.625V19.375C44.5835 17.6487 43.1847 16.25 41.4585 16.25Z" fill="white"/>
</svg>
