<svg width="58" height="52" viewBox="0 0 58 52" fill="none" xmlns="http://www.w3.org/2000/svg">
<path d="M43.2587 1.74652L42.1357 5.19994C41.1 5.74899 40.5509 6.65368 40.4885 7.91401C39.2781 8.28212 38.6823 9.15873 38.701 10.5438C37.8524 11.1491 37.3065 12.0163 37.0632 13.1456L35.3879 15.9252C31.6444 20.9228 31.4102 25.1624 23.4271 25.1998C16.0835 25.2435 8.73683 25.2466 1.38701 25.2092C1.29912 25.2094 1.21244 25.1886 1.1342 25.1486C1.05595 25.1086 0.988385 25.0504 0.937126 24.979C0.885867 24.9076 0.852391 24.825 0.839483 24.7381C0.826575 24.6512 0.834608 24.5624 0.862912 24.4792L1.56483 22.4202C1.67089 22.1083 1.88615 21.9523 2.21059 21.9523C9.26717 21.9523 16.3144 21.9492 23.3523 21.9429C29.0144 21.9429 32.3836 13.6416 34.611 9.33656C34.6861 9.19069 34.7294 9.03055 34.7382 8.86671C34.7469 8.70286 34.7207 8.53904 34.6615 8.38603C34.6022 8.23303 34.5112 8.09433 34.3944 7.97909C34.2776 7.86385 34.1377 7.77468 33.9839 7.71747C33.4661 7.53029 33.0605 7.67692 32.7673 8.15734C29.7631 13.0614 28.3031 19.4816 21.4337 19.5751C15.6562 19.6563 9.87237 19.6563 4.08236 19.5751C3.99573 19.5738 3.91102 19.5493 3.83701 19.5043C3.76299 19.4593 3.70233 19.3953 3.66131 19.319C3.62029 19.2426 3.60039 19.1568 3.60366 19.0702C3.60694 18.9836 3.63326 18.8994 3.67993 18.8264L5.01825 16.702C5.16799 16.4586 5.38636 16.337 5.67337 16.337H13.5161C13.7002 16.3383 13.881 16.2879 14.0378 16.1915C14.1946 16.0951 14.3212 15.9566 14.4032 15.7917C14.4851 15.6269 14.5191 15.4423 14.5013 15.2591C14.4834 15.0758 14.4145 14.9013 14.3022 14.7553C13.9965 14.356 13.4974 14.1345 12.8048 14.0909C11.0578 13.9785 9.30148 14.0191 7.53578 14.2125C7.46604 14.2207 7.39531 14.2127 7.32925 14.1892C7.26319 14.1658 7.20366 14.1275 7.15542 14.0774C7.10718 14.0274 7.07159 13.9669 7.05151 13.901C7.03142 13.8351 7.0274 13.7655 7.03976 13.6978C7.31117 11.9664 8.32192 10.8901 10.2124 10.965C20.8909 11.3674 21.9297 9.15874 26.4688 1.03524C26.6123 0.785675 26.8275 0.660891 27.1145 0.660891H29.6227C29.6989 0.660131 29.774 0.679193 29.8407 0.716207C29.9073 0.75322 29.9632 0.806916 30.0028 0.872028C30.0424 0.93714 30.0645 1.01143 30.0667 1.08763C30.069 1.16382 30.0514 1.23929 30.0158 1.30665C27.6199 5.78955 24.3162 15.0267 18.2236 13.9224C18.0413 13.8875 17.8531 13.9012 17.6778 13.9621C17.5025 14.023 17.3464 14.129 17.225 14.2693C17.1036 14.4097 17.0213 14.5795 16.9863 14.7617C16.9513 14.944 16.9649 15.1322 17.0257 15.3075C17.2752 16.0375 17.9023 16.4025 18.9068 16.4025C26.3752 16.3744 29.0144 8.0076 32.0186 2.42036C32.9919 0.614096 34.0494 0.108718 36.0242 0.791915C36.3673 0.91046 36.4547 1.13507 36.2862 1.46575L35.0883 3.75867C34.9798 3.96979 34.9592 4.21525 35.0311 4.44145C35.103 4.66766 35.2615 4.85622 35.472 4.96597C36.177 5.3216 36.7417 5.14379 37.1659 4.43251C37.8273 3.32817 38.4949 2.22694 39.1687 1.12883C39.3372 0.854307 39.5836 0.713924 39.9081 0.707685C41.1746 0.695206 42.2916 1.04148 43.2587 1.74652Z" fill="#9A12E6"/>
<path d="M43.2587 1.74652L45.8418 4.17046C45.6172 4.08311 45.4269 4.03944 45.2709 4.03944C45.2199 4.04034 45.1701 4.05464 45.1265 4.08091C45.0828 4.10718 45.0468 4.14449 45.0222 4.18908C44.9975 4.23367 44.985 4.28397 44.9859 4.33491C44.9869 4.38586 45.0012 4.43566 45.0275 4.4793L47.0303 7.70811C47.1614 7.92024 47.3298 8.09806 47.5357 8.24157C48.0224 8.55977 48.1097 9.0901 47.7978 9.83257C47.4609 10.6312 47.3548 11.3487 47.4796 11.9851C47.5295 12.2347 47.4297 12.3595 47.1801 12.3595H46.7402C46.5094 12.3595 46.422 12.4718 46.4782 12.6964C46.5094 12.8399 46.5125 12.9553 46.4875 13.0427C45.7264 12.3376 45.0276 12.4094 44.3912 13.2579C44.2309 13.473 44.1398 13.732 44.1298 14.001C44.1197 14.2699 44.1913 14.5361 44.335 14.7647C46.6747 18.5176 49.5479 22.2237 49.5572 26.8283C49.5572 27.1402 49.4793 27.4303 49.3233 27.6986L39.7398 43.8052C38.7166 43.381 38.0895 42.5168 37.8587 41.2128L41.78 34.6242C41.9485 34.3372 41.9142 34.0783 41.6771 33.8474L41.2185 33.3795C41.1198 33.2827 41.0014 33.2083 40.8716 33.1614C40.7418 33.1145 40.6035 33.0962 40.4665 33.1077C40.3294 33.1193 40.1968 33.1605 40.0778 33.2284C39.9588 33.2963 39.8563 33.3894 39.7772 33.5011L36.3987 38.2742L34.6767 35.7473C40.3762 27.474 41.022 24.7693 35.3879 15.9252L37.0632 13.1456C39.1689 16.702 43.9794 23.2345 42.9405 27.3804C42.6878 28.3912 41.6022 29.4955 41.6116 30.5437C41.6122 30.7794 41.6852 31.0093 41.8206 31.2022C41.956 31.3951 42.1474 31.5417 42.3689 31.6224C42.5904 31.703 42.8313 31.7137 43.059 31.653C43.2868 31.5923 43.4904 31.4632 43.6424 31.2831C49.2671 24.7225 42.1076 16.3276 38.701 10.5438C38.6823 9.15873 39.2781 8.28212 40.4885 7.91401L42.1263 10.235C42.2912 10.468 42.538 10.6301 42.8173 10.6889C43.0965 10.7478 43.3878 10.699 43.6326 10.5523C43.8775 10.4056 44.0579 10.1719 44.1378 9.89789C44.2177 9.62388 44.1912 9.32981 44.0636 9.0745L42.1357 5.19994L43.2587 1.74652Z" fill="#0093C3" fill-opacity="0.749"/>
<path d="M45.8418 4.17046C48.4248 8.53793 50.9765 12.9397 53.4971 17.3758C56.7634 23.1409 58.7475 25.4151 55.266 31.1614C49.3637 40.9009 45.3676 47.2524 43.2774 50.2161L41.284 46.8094C44.7406 41.0069 48.0846 35.1264 51.3165 29.168C54.0961 24.058 49.941 18.5737 46.4875 13.0427C46.5125 12.9553 46.5094 12.8399 46.4782 12.6964C46.422 12.4718 46.5094 12.3595 46.7402 12.3595H47.1801C47.4297 12.3595 47.5295 12.2347 47.4796 11.9851C47.3548 11.3487 47.4609 10.6312 47.7978 9.83257C48.1097 9.0901 48.0224 8.55977 47.5357 8.24157C47.3298 8.09806 47.1614 7.92024 47.0303 7.70811L45.0275 4.4793C45.0012 4.43566 44.9869 4.38586 44.9859 4.33491C44.985 4.28397 44.9975 4.23367 45.0222 4.18908C45.0468 4.14449 45.0828 4.10718 45.1265 4.08091C45.1701 4.05464 45.2199 4.04034 45.2709 4.03944C45.4269 4.03944 45.6172 4.08311 45.8418 4.17046Z" fill="#009BE7" fill-opacity="0.894"/>
<path d="M34.6767 35.7473L36.3987 38.2742C36.5796 39.5532 37.0663 40.5328 37.8587 41.2128C38.0895 42.5168 38.7166 43.381 39.7398 43.8052C39.64 44.8846 40.1547 45.886 41.284 46.8094L43.2774 50.2161C41.674 50.9461 40.3263 51.2798 39.2344 51.2175C38.9162 51.1987 38.676 51.0521 38.5138 50.7776L36.2021 46.7814C36.1058 46.6153 35.9606 46.4829 35.7864 46.4021C35.6122 46.3213 35.4174 46.2961 35.2284 46.3298C35.0393 46.3635 34.8652 46.4546 34.7297 46.5906C34.5942 46.7266 34.5038 46.901 34.4708 47.0902L34.3491 47.7734C34.3054 48.023 34.3491 48.2538 34.4801 48.466L35.781 50.7121C35.8292 50.7949 35.8539 50.8893 35.8522 50.9852C35.8505 51.081 35.8225 51.1745 35.7714 51.2556C35.7202 51.3366 35.6479 51.4021 35.5621 51.4449C35.4763 51.4877 35.3805 51.5061 35.285 51.4982L31.8222 51.18C31.5414 51.1551 31.3355 51.0209 31.2045 50.7776C27.9663 44.8628 24.6814 35.2325 16.3988 36.4585C16.1796 36.4898 15.9789 36.5986 15.8329 36.7651C15.687 36.9316 15.6055 37.1449 15.6033 37.3663C15.5908 37.9528 15.8716 38.3646 16.4456 38.6017C16.6952 38.7015 17.1444 38.7452 17.7933 38.7327C23.2214 38.6298 26.2069 46.6784 28.453 50.7027C28.4985 50.7832 28.5216 50.8744 28.5197 50.9669C28.5177 51.0593 28.491 51.1496 28.4421 51.2281C28.3933 51.3066 28.3242 51.3705 28.2421 51.4131C28.1601 51.4557 28.068 51.4754 27.9757 51.4701L25.6173 51.3391C25.2803 51.3142 25.0277 51.1551 24.8592 50.8618C19.9364 42.2142 18.8227 41.6808 8.88363 41.8399C8.50303 41.8461 8.22539 41.687 8.05069 41.3626L7.07737 39.6031C7.01172 39.4855 6.98178 39.3513 6.99122 39.217C7.00065 39.0827 7.04905 38.954 7.13049 38.8467C7.21192 38.7395 7.32287 38.6583 7.44973 38.6131C7.5766 38.5679 7.71389 38.5607 7.84479 38.5924C9.44204 38.9854 11.0143 38.8762 12.5617 38.2648C12.7905 38.1759 12.9803 38.0097 13.098 37.795C13.2158 37.5804 13.2541 37.3308 13.2063 37.0896C13.1585 36.8483 13.0276 36.6307 12.8363 36.4744C12.6451 36.3181 12.4055 36.233 12.1592 36.2339L5.89815 36.2714C5.51132 36.2714 5.21183 36.1123 4.9997 35.7941L3.76433 33.9129C3.72114 33.846 3.69654 33.7687 3.69304 33.6891C3.68954 33.6095 3.70728 33.5305 3.74442 33.46C3.78157 33.3895 3.83679 33.3302 3.90443 33.288C3.97207 33.2459 4.04968 33.2226 4.12933 33.2204C9.78832 33.1517 15.413 33.1299 21.0033 33.1549C26.497 33.1829 29.0426 40.4548 31.4291 44.5727C31.5051 44.7053 31.6213 44.8104 31.761 44.8726C31.9006 44.9349 32.0564 44.9511 32.2059 44.9189C33.226 44.713 33.6004 43.8614 33.1231 42.9161C30.5213 37.8249 28.1722 30.9181 21.3496 30.8713C15.6969 30.8276 10.0379 30.8214 4.37266 30.8526C2.11717 30.8713 0.844365 29.9916 0.928595 27.6986C0.934834 27.3929 1.09393 27.2369 1.4059 27.2307C10.4466 26.978 26.3847 25.9766 29.9411 28.9247C31.8596 30.5063 33.2822 33.4637 34.6767 35.7473Z" fill="#017AFF"/>
</svg>
