<svg width="61" height="60" viewBox="0 0 61 60" fill="none" xmlns="http://www.w3.org/2000/svg">
<path d="M30.7254 6.25C28.7817 6.25625 27.4342 6.4275 25.8054 6.70875C20.9954 7.54625 20.1192 9.305 20.1192 12.5462V17.5H31.3692V20H19.6917H14.2542C10.9592 20 8.07544 21.5525 7.16169 25.2737C6.12919 29.545 6.08294 32.22 7.16169 36.68C7.98044 40.0062 9.78419 42.5 13.0804 42.5H17.6204V36.12C17.6204 32.4125 20.9779 28.75 24.8254 28.75H33.8704C37.0242 28.75 40.1204 26.4225 40.1204 23.2787V12.5462C40.1204 9.4975 37.9217 7.2175 34.8479 6.70625C34.9242 6.69875 32.6529 6.2425 30.7254 6.25ZM24.4954 11.25C25.5217 11.25 26.3704 12.0962 26.3704 13.1275C26.3704 14.1687 25.5217 15 24.4954 15C23.4492 15 22.6204 14.17 22.6204 13.1275C22.6204 12.1 23.4492 11.25 24.4954 11.25Z" fill="#0277BD"/>
<path d="M29.5141 53.75C31.4579 53.7437 32.8054 53.5725 34.4341 53.2912C39.2441 52.4537 40.1204 50.695 40.1204 47.4537V42.5H28.8704V40H40.5491H45.9866C49.2816 40 52.1654 38.4475 53.0791 34.7262C54.1116 30.455 54.1579 27.78 53.0791 23.32C52.2591 19.9937 50.4554 17.5 47.1591 17.5H42.6191V23.88C42.6191 27.5875 39.2616 31.25 35.4141 31.25H26.3691C23.2154 31.25 20.1191 33.5775 20.1191 36.7212V47.4537C20.1191 50.5025 22.3179 52.7825 25.3916 53.2937C25.3154 53.3012 27.5866 53.7575 29.5141 53.75ZM35.7454 48.75C34.7191 48.75 33.8704 47.9037 33.8704 46.8725C33.8704 45.8312 34.7191 45 35.7454 45C36.7916 45 37.6204 45.83 37.6204 46.8725C37.6204 47.9 36.7904 48.75 35.7454 48.75Z" fill="#FFC107"/>
</svg>
