<svg width="60" height="60" viewBox="0 0 60 60" fill="none" xmlns="http://www.w3.org/2000/svg">
<path d="M30 12.005C22 12.005 17 16.0037 15 24.0012C18 20.0025 21.5 18.5037 25.5 19.5025C27.7825 20.0725 29.4137 21.7287 31.22 23.5612C34.16 26.545 37.5638 30 45 30C53 30 58 26.0012 60 18.0025C57 22.0012 53.5 23.5012 49.5 22.5025C47.2187 21.9325 45.5875 20.2762 43.7812 18.4437C40.84 15.4587 37.435 12.005 30 12.005ZM15 30C7 30 2 33.9987 0 41.9975C3 37.9987 6.5 36.4987 10.5 37.4987C12.7812 38.07 14.4125 39.725 16.2188 41.5562C19.16 44.5412 22.565 47.9962 30 47.9962C38 47.9962 43 43.9975 45 35.9987C42 39.9975 38.5 41.4975 34.5 40.4975C32.2175 39.9275 30.5863 38.2712 28.78 36.44C25.84 33.455 22.4363 30 15 30Z" fill="#00ACC1"/>
</svg>
